<svg xmlns="http://www.w3.org/2000/svg" viewBox="0 0 60 42" aria-label="Flag of the United States">
  <defs>
    <clipPath id="r"><rect width="60" height="42" rx="6"/></clipPath>
  </defs>
  <g clip-path="url(#r)">
    <rect width="60" height="42" fill="#fff"/>
    <g fill="#B22234">
      <rect width="60" height="3.23" y="0"/>
      <rect width="60" height="3.23" y="6.46"/>
      <rect width="60" height="3.23" y="12.92"/>
      <rect width="60" height="3.23" y="19.38"/>
      <rect width="60" height="3.23" y="25.84"/>
      <rect width="60" height="3.23" y="32.3"/>
      <rect width="60" height="3.23" y="38.76"/>
    </g>
    <rect width="24" height="22.62" fill="#3C3B6E"/>
    <g fill="#fff">
      <circle cx="3.2" cy="3.1" r=".8"/><circle cx="8" cy="3.1" r=".8"/><circle cx="12.8" cy="3.1" r=".8"/><circle cx="17.6" cy="3.1" r=".8"/><circle cx="22.4" cy="3.1" r=".8"/>
      <circle cx="5.6" cy="6.2" r=".8"/><circle cx="10.4" cy="6.2" r=".8"/><circle cx="15.2" cy="6.2" r=".8"/><circle cx="20" cy="6.2" r=".8"/>
      <circle cx="3.2" cy="9.3" r=".8"/><circle cx="8" cy="9.3" r=".8"/><circle cx="12.8" cy="9.3" r=".8"/><circle cx="17.6" cy="9.3" r=".8"/><circle cx="22.4" cy="9.3" r=".8"/>
      <circle cx="5.6" cy="12.4" r=".8"/><circle cx="10.4" cy="12.4" r=".8"/><circle cx="15.2" cy="12.4" r=".8"/><circle cx="20" cy="12.4" r=".8"/>
      <circle cx="3.2" cy="15.5" r=".8"/><circle cx="8" cy="15.5" r=".8"/><circle cx="12.8" cy="15.5" r=".8"/><circle cx="17.6" cy="15.5" r=".8"/><circle cx="22.4" cy="15.5" r=".8"/>
      <circle cx="5.6" cy="18.6" r=".8"/><circle cx="10.4" cy="18.6" r=".8"/><circle cx="15.2" cy="18.6" r=".8"/><circle cx="20" cy="18.6" r=".8"/>
    </g>
  </g>
</svg>
